<svg xmlns="http://www.w3.org/2000/svg" viewBox="0 0 1000 1000" x="0px" y="0px" xmlns:xml="http://www.w3.org/XML/1998/namespace" xml:space="preserve" enable-background="new 0 0 1000 1000" xmlns:xlink="http://www.w3.org/1999/xlink" version="1.1">
<metadata> 矢量图标下载 : http://www.sfont.cn/ </metadata><g><path style="fill:#56abe4" d="M 500 10 C 229.4 10 10 229.4 10 500 c 0 270.6 219.4 490 490 490 c 270.6 0 490 -219.4 490 -490 C 990 229.4 770.6 10 500 10 L 500 10 L 500 10 Z M 803.3 432.4 v 0.4 c 0 46.5 -18.5 89.9 -51.7 121.8 L 500 807.3 L 244 550 c -30.5 -31.7 -47.2 -73.4 -47.2 -117.2 v -0.3 v -0.4 c 0 -93.3 76 -169.3 169.3 -169.3 c 53.4 0 102.4 24.8 133.9 65.6 c 31.6 -40.9 80.6 -65.6 133.9 -65.6 c 93.4 0 169.3 76 169.3 169.3 L 803.3 432.4 L 803.3 432.4 L 803.3 432.4 Z" /></g></svg>