<svg xmlns="http://www.w3.org/2000/svg" viewBox="0 0 1000 1000" x="0px" y="0px" xmlns:xml="http://www.w3.org/XML/1998/namespace" xml:space="preserve" enable-background="new 0 0 1000 1000" xmlns:xlink="http://www.w3.org/1999/xlink" version="1.1">
<metadata> 矢量图标下载 : http://www.sfont.cn/ </metadata><g><path style="fill:#56abe4" d="M 893.2 592.4 l -87.3 -87.3 v 454.2 c 0 16.4 -13.6 30.7 -30.7 30.7 h -91.4 h -30.7 c -17 0 -30.7 -14.3 -30.7 -30.7 v -61.4 v -30.7 v -92.1 V 591.7 c 0 -17 -13.6 -30.7 -30.7 -30.7 H 408.3 c -17 0 -30.7 13.6 -30.7 30.7 v 183.4 v 122.8 v 30.7 v 30.7 c 0 16.4 -13.6 30.7 -30.7 30.7 h -30.7 h -91.4 c -17 0 -30.7 -14.3 -30.7 -30.7 V 505.1 l -87.3 87.3 L 10 494.9 L 494.9 10 l 5.5 4.8 l 4.8 -4.8 l 240.1 240 V 71.4 h 122.1 v 300.7 L 990 494.9 L 893.2 592.4 Z" /></g></svg>