<svg xmlns="http://www.w3.org/2000/svg" viewBox="0 0 1000 1000" x="0px" y="0px" xmlns:xml="http://www.w3.org/XML/1998/namespace" xml:space="preserve" enable-background="new 0 0 1000 1000" xmlns:xlink="http://www.w3.org/1999/xlink" version="1.1">
<metadata> 矢量图标下载 : http://www.sfont.cn/ </metadata><g><path style="fill:#FFFFFF" d="M 928.9 516.9 c 4.4 -4.5 6.8 -10.7 6.8 -17.1 c 0 -6.4 -2.4 -12.5 -6.8 -17 M 928.9 482.8 L 490 24.5 c -19.3 -20.2 -51.4 -18.9 -70.6 1.2 c -19.2 20.1 -19.3 52.5 -0.1 72.7 l 384.1 401.5 L 419.3 901.3 c -19.3 20.2 -19.1 52.6 0.1 72.7 c 19.2 20.1 51.4 21.4 70.6 1.2 l 438.9 -458.3 M 588.3 517.2 c 4.3 -4.5 6.8 -10.7 6.8 -17.1 c 0 -6.4 -2.4 -12.5 -6.8 -17 M 588.3 483.1 L 149.4 24.8 C 130.1 4.6 98 5.9 78.8 26 c -19.2 20.1 -19.3 52.5 -0.1 72.7 l 384.1 401.5 L 78.7 901.6 c -19.3 20.2 -19.1 52.6 0.1 72.7 c 19.2 20.1 51.4 21.4 70.6 1.2 l 438.9 -458.3" /></g></svg>