<svg xmlns="http://www.w3.org/2000/svg" viewBox="0 0 1000 1000" x="0px" y="0px" xmlns:xml="http://www.w3.org/XML/1998/namespace" xml:space="preserve" enable-background="new 0 0 1000 1000" xmlns:xlink="http://www.w3.org/1999/xlink" version="1.1">
<metadata> 矢量图标下载 : http://www.sfont.cn/ </metadata><g><path style="fill:#000000" d="M 701.8 773.8 c -9.2 7.8 -20.9 13.1 -32.8 13.1 c -2.7 0 -6.6 0 -9.2 -1.2 l -34 -6.6 c -1.2 0 -3.9 0 -5.3 1.2 l -11.9 13.1 c -2.7 2.7 -3.9 3.9 -6.6 6.6 l -6.6 7.8 c -9.2 10.4 -22.3 15.8 -36.7 15.8 c -9.2 0 -17 -2.7 -23.5 -6.6 l -28.9 -15.8 c 0 0 -1.2 0 -1.2 -1.2 c -1.2 0 -2.7 -1.2 -3.9 -1.2 c -1.2 0 -2.7 0 -3.9 1.2 c 0 0 -1.2 0 -1.2 1.2 L 467.3 817 c -6.6 3.9 -15.8 6.6 -23.5 6.6 c -14.3 0 -27.4 -5.3 -36.7 -15.8 l -6.6 -7.8 c -2.7 -1.2 -3.9 -3.9 -6.6 -6.6 l -11.9 -13.1 c -1.2 -1.2 -3.9 -1.2 -5.3 -1.2 l -34 6.6 c -2.7 0 -6.6 1.2 -9.2 1.2 c -11.9 0 -23.5 -5.3 -32.8 -13.1 l -53.6 162.6 c -2.7 10.4 2.7 15.8 11.9 11.9 l 101 -35.4 c 9.2 -3.9 23.5 0 30.1 7.8 l 53.6 64.3 c 6.6 7.8 14.3 6.6 17 -3.9 l 39.3 -173 l 42 173 c 2.7 10.4 10.4 11.9 17 3.9 l 53.6 -64.3 c 6.6 -7.8 19.7 -11.9 30.1 -7.8 l 101 35.4 c 9.2 3.9 15.8 -1.2 11.9 -11.9 L 701.8 773.8 Z" /><path style="fill:#000000" d="M 873.4 419.9 c -5.3 -9.2 -5.3 -23.5 0 -32.8 l 17 -30.1 c 5.3 -9.2 2.7 -22.3 -5.3 -28.9 l -24.8 -25 c -7.8 -6.6 -11.9 -20.9 -10.4 -31.5 l 6.6 -34 c 2.7 -10.4 -3.9 -22.3 -13.1 -26.2 l -31.5 -14.3 c -9.2 -3.9 -18.4 -15.8 -19.7 -26.2 l -3.9 -34 c -1.2 -10.4 -10.4 -19.7 -20.9 -20.9 l -34 -3.9 c -10.4 -1.2 -22.3 -10.4 -26.2 -19.7 L 692.8 61 c -3.9 -7.8 -13.1 -14.3 -22.3 -14.3 c -1.2 0 -2.7 0 -3.9 0 l -35.4 6.6 c -1.2 0 -3.9 0 -5.3 0 c -9.2 0 -19.7 -3.9 -26.2 -10.4 l -23.5 -25 c -3.9 -5.3 -11.9 -7.8 -18.4 -7.8 c -3.9 0 -7.8 1.2 -11.9 2.7 l -30.1 17 c -3.9 2.7 -10.4 3.9 -17 3.9 c -6.6 0 -11.9 -1.2 -17 -3.9 l -30.1 -17 c -3.9 -1.2 -7.8 -2.7 -11.9 -2.7 c -6.6 0 -13.1 2.7 -18.4 7.8 l -23.5 25 c -6.6 6.6 -17 10.4 -26.2 10.4 c -1.2 0 -3.9 0 -5.3 0 l -34 -6.6 c -1.2 0 -2.7 0 -3.9 0 c -9.2 0 -18.4 5.3 -22.3 14.3 l -14.3 31.5 c -3.9 9.2 -15.8 18.4 -26.2 19.7 l -34 3.9 c -10.4 1.2 -19.7 10.4 -20.9 20.9 l -3.9 34 c -1.2 10.4 -10.4 22.3 -19.7 26.2 l -30.1 14.3 c -9.2 3.9 -15.8 15.8 -13.1 26.2 l 6.6 34 c 2.7 10.4 -2.7 25 -10.4 31.5 l -25 23.5 c -7.8 6.6 -9.2 19.7 -5.3 28.9 l 17 30.1 c 5.3 9.2 5.3 23.5 0 32.8 l -17 30.1 c -5.3 9.2 -2.7 22.3 5.3 28.9 l 25 23.5 c 7.8 6.6 11.9 20.9 10.4 31.5 l -6.6 34 c -2.7 10.4 3.9 22.3 13.1 26.2 l 31.5 14.3 c 9.2 3.9 18.4 15.8 19.7 26.2 L 212 670 c 1.2 10.4 10.4 19.7 20.9 20.9 l 34 3.9 c 10.4 1.2 22.3 10.4 26.2 19.7 l 14.3 31.5 c 1.2 2.7 2.7 3.9 5.3 6.6 c 5.3 3.9 11.9 7.8 17 7.8 c 1.2 0 2.7 0 3.9 0 l 34 -6.6 c 1.2 0 3.9 0 5.3 0 c 9.2 0 19.7 3.9 26.2 10.4 l 23.5 25 c 3.9 5.3 11.9 7.8 18.4 7.8 c 3.9 0 7.8 -1.2 11.9 -2.7 l 30.1 -17 c 1.2 0 1.2 0 2.7 -1.2 c 3.9 -1.2 9.2 -2.7 14.3 -2.7 c 5.3 0 10.4 1.2 14.3 2.7 c 1.2 0 1.2 0 2.7 1.2 l 29.9 17.4 c 3.9 1.2 7.8 2.7 11.9 2.7 c 6.6 0 13.1 -2.7 18.4 -7.8 l 23.5 -25 c 6.6 -6.6 17 -10.4 26.2 -10.4 c 1.2 0 3.9 0 5.3 0 l 34 6.6 c 1.2 0 2.7 0 3.9 0 c 6.6 0 13.1 -2.7 17 -7.8 c 1.2 -1.2 3.9 -3.9 5.3 -6.6 l 14.3 -31.5 c 3.9 -9.2 15.8 -18.4 26.2 -19.7 l 34 -3.9 c 10.4 -1.2 19.7 -10.4 20.9 -20.9 l 3.9 -34 c 1.2 -10.4 10.4 -22.3 19.7 -26.2 l 31.5 -14.3 c 9.2 -3.9 15.8 -15.8 13.1 -26.2 l -6.6 -34 c -2.7 -10.4 2.7 -25 10.4 -31.5 l 25 -23.5 c 7.8 -6.6 9.2 -19.7 5.3 -28.9 L 873.4 419.9 Z M 658.4 667.5 c -38.1 23.5 -82.5 38.1 -128.4 43.2 c -10.4 1.2 -19.7 1.2 -30.1 1.2 c -10.4 0 -19.7 0 -30.1 -1.2 c -47.1 -3.9 -90.5 -19.7 -128.4 -43.2 c -90.5 -53.6 -150.7 -151.9 -150.7 -264.8 c 0 -170.4 138.8 -309.2 309.2 -309.2 c 170.4 0 309.2 138.8 309.2 309.2 C 809.1 515.6 748.9 613.9 658.4 667.5 Z" /><path style="fill:#000000" d="M 499.9 126.3 C 346.5 126.3 222 250.8 222 404.2 c 0 98.3 51.2 184.7 128.4 233.2 c 32.8 20.9 70.8 35.4 111.4 40.5 c 11.9 1.2 25 2.7 38.1 2.7 c 13.1 0 25 -1.2 38.1 -2.7 c 40.5 -5.3 77.4 -19.7 111.4 -40.5 c 77.4 -49.8 128.4 -134.9 128.4 -233.2 C 777.8 250.8 653.3 126.3 499.9 126.3 Z M 585.1 428.9 l 19.7 109.1 l -103 -51.4 l -103.2 51.4 l 19.7 -109.1 l -83.3 -77.2 l 115.3 -16 l 51.6 -99.1 l 51.6 99.1 l 115.3 16 L 585.1 428.9 Z" /></g></svg>